<?xml version="1.0" encoding="utf-8"?>
<!-- Generator: Adobe Illustrator 18.1.1, SVG Export Plug-In . SVG Version: 6.00 Build 0)  -->
<svg version="1.1" id="Layer_1" xmlns="http://www.w3.org/2000/svg" xmlns:xlink="http://www.w3.org/1999/xlink" x="0px" y="0px"
	 viewBox="0 0 100 100" enable-background="new 0 0 100 100" xml:space="preserve">
<g id="Grupo_4" transform="translate(-14.387 30)">
	<g id="Grupo_3" transform="translate(92.387 356.447)">
		<path id="Trazado_8" fill="#A3A2AC" d="M-55.4-367.1v-3.2c0-1.1-0.8-1.9-1.9-2l-2.9-5.1c-0.6-1-1.8-1.3-2.8-0.8c0,0,0,0,0,0
			l-10.1,5.9h-1.8c-1.1,0-2,0.9-2,2c0,0,0,0,0,0v12.3c0,1.1,0.9,2,2,2h17.4c1.1,0,2-0.9,2-2v-3.2c0.6-0.2,1-0.8,1-1.4v-3.1
			C-54.4-366.3-54.8-366.8-55.4-367.1z M-66.9-372.3l6.4-3.7l0.5,0.9l-4.9,2.8L-66.9-372.3z M-59.6-374.2l1.1,1.9h-4.5L-59.6-374.2z
			 M-62.5-377.2c0.2-0.1,0.5-0.2,0.8-0.1c0.3,0.1,0.5,0.2,0.6,0.5l0,0l-7.9,4.6h-2L-62.5-377.2z M-57.4-356.9h-17.4
			c-0.6,0-1-0.5-1-1v-12.3c0-0.6,0.5-1,1-1h17.4c0.6,0,1,0.5,1,1v3.1h-3.1c-1.7,0-3.1,1.4-3.1,3.1c0,1.7,1.4,3.1,3.1,3.1h3.1v3.1
			C-56.4-357.4-56.9-356.9-57.4-356.9z M-55.4-362.5c0,0.3-0.2,0.5-0.5,0.5h-3.6c-1.1,0-2-0.9-2-2.1c0-1.1,0.9-2,2-2h3.6
			c0.3,0,0.5,0.2,0.5,0.5L-55.4-362.5z"/>
		<path id="Trazado_9" fill="#A3A2AC" d="M-59.5-365.1c-0.6,0-1,0.5-1,1c0,0.6,0.5,1,1,1c0.6,0,1-0.5,1-1c0,0,0,0,0,0
			C-58.4-364.6-58.9-365.1-59.5-365.1z"/>
	</g>
	<path id="Trazado_10" fill="#A3A2AC" enable-background="new    " d="M110,9.9c-0.1,0-0.1,0-0.2,0c-0.1,0-0.2,0-0.3,0.1
		c-0.9,0.7-1.9,1.3-3,1.7c-0.3,0.1-0.8,0.2-1.3,0.4c-2.4,0.7-4.4,1.3-5.1,2c-0.8,0.8-1.3,3.7-1.4,4.8c-2.9,0.5-4.9,3.2-4.5,6.1
		c0.5,2.9,3.2,4.9,6.1,4.5c2.9-0.5,4.9-3.2,4.5-6.1c-0.1-0.4-0.2-0.7-0.3-1.1c0.7-0.4,1.4-0.7,2.2-0.8c0.1,0,0.2,0,0.4,0
		c0.9,0,1.8-0.3,2.5-0.9c0.6-0.5,1.1-1.1,1.4-1.8c0.6-1.1,1.4-2,2.5-2.7c0.1-0.1,0.2-0.2,0.2-0.4C113.8,11.4,110.1,9.9,110,9.9z
		 M99.7,28.5c-2.4,0-4.4-2-4.5-4.4c0-2.4,2-4.4,4.4-4.5c0.5,0,1,0.1,1.5,0.2c-0.4,0.3-0.7,0.6-1,1c0-0.2-0.2-0.3-0.4-0.3
		c-0.2,0-0.4,0.2-0.4,0.4v0.5c-0.8,0.1-1.4,0.9-1.3,1.7c0.1,0.8,0.8,1.3,1.5,1.3h0.4c0.4,0,0.7,0.3,0.7,0.6c0,0.4-0.3,0.7-0.6,0.7
		c0,0,0,0,0,0h-1.6c-0.2,0-0.4,0.2-0.4,0.4c0,0.2,0.2,0.4,0.4,0.4h0.9v0.4c0,0.2,0.2,0.4,0.4,0.4c0.2,0,0.4-0.2,0.4-0.4v-0.5
		c0.8-0.1,1.4-0.9,1.3-1.7c-0.1-0.8-0.8-1.3-1.5-1.3h-0.4c-0.4,0-0.7-0.3-0.6-0.7c0-0.4,0.3-0.6,0.6-0.6h0c0,0.3,0.1,0.6,0.3,0.8
		c0.4,0.4,0.9,0.6,1.5,0.6c0.9-0.1,1.8-0.4,2.6-0.9c0.2,0.5,0.2,0.9,0.2,1.4C104.1,26.5,102.1,28.5,99.7,28.5L99.7,28.5z
		 M102.2,19.2l0.9-1.9c0.2-0.1,0.6-0.2,1-0.3c0.1,0.1,0.2,0.1,0.3,0.1c0.2,0.1,0.4,0.2,0.5,0.3C104.4,18.1,103.2,18.8,102.2,19.2z
		 M110.3,18.2c-0.3,0.6-0.7,1.1-1.2,1.5c-0.6,0.5-1.3,0.8-2,0.8c-0.1,0-0.3,0-0.4,0c-1.2,0.2-2.3,0.7-3.3,1.4c-1,0.7-2.3,1.1-3,0.5
		c-0.1-0.1-0.1-0.2-0.1-0.3c0.1-0.7,1.4-1.8,2.1-2.1c0.8-0.3,2.8-1.3,3.3-2.5c0.1-0.1,0-0.3,0-0.4c-0.3-0.4-0.7-0.6-1.1-0.8
		c-0.1,0-0.2-0.1-0.2-0.1c-0.1-0.2-0.4-0.2-0.6-0.1c-0.4,0.2-0.8,0.3-1.2,0.4c-0.1,0-0.2,0.1-0.3,0.2l-1.1,2.3
		c-0.5-0.2-1-0.3-1.6-0.3c0.3-1.6,0.7-3.7,1.1-4.1c0.6-0.6,3.2-1.3,4.7-1.7c0.5-0.1,1-0.3,1.3-0.4c1.1-0.4,2.1-1,3-1.7
		c1.8,0.8,2.9,2.6,3,4.6C111.9,16.1,111,17,110.3,18.2z"/>
	<path id="Trazado_11" fill="#A3A2AC" enable-background="new    " d="M72.5,52.4h-2.8c-0.2-1.2-0.7-4.1-1.4-4.9
		c-0.7-0.7-2.8-1.3-5.3-2c-0.5-0.1-1-0.3-1.3-0.4c-1.1-0.4-2.1-1-3-1.7c-0.1-0.1-0.3-0.1-0.4-0.1c0,0-3.9,1.6-3.9,5.9
		c0,0.2,0.1,0.3,0.2,0.4c1.1,0.6,2,1.6,2.6,2.7c0.3,0.5,0.6,0.9,0.9,1.3C58,53.9,58,54.1,58,54.3v7.3c0,1,0.8,1.8,1.8,1.8h12.7
		c1,0,1.8-0.8,1.8-1.8v-7.3C74.3,53.3,73.5,52.4,72.5,52.4z M73.4,54.3v4.5H58.9v-4.5c0.7,0.5,1.5,0.8,2.3,0.8c0.1,0,0.2,0,0.4,0
		c1.1,0.2,2.1,0.6,3,1.3c0.8,0.6,1.7,0.9,2.7,1c0.6,0,1.1-0.2,1.5-0.6c0.3-0.3,0.4-0.7,0.3-1.1c-0.2-0.9-1.2-1.8-2-2.4h5.4
		C73,53.3,73.4,53.8,73.4,54.3L73.4,54.3z M58.9,59.7h14.5v0.9H58.9V59.7z M65.3,52.4c-0.7-0.3-1.3-0.7-1.7-1.3
		c0.2-0.1,0.4-0.2,0.6-0.3c0.1,0,0.2-0.1,0.3-0.2c0.3,0.1,0.7,0.2,1,0.3l0.6,1.4L65.3,52.4z M55.3,49c0.1-2,1.3-3.8,3.1-4.7
		c0.9,0.7,2,1.3,3.1,1.7c0.3,0.1,0.8,0.2,1.3,0.4c1.6,0.4,4.3,1.2,4.9,1.8c0.4,0.4,0.9,2.6,1.2,4.2h-1.9l-0.8-2
		c-0.1-0.1-0.2-0.2-0.3-0.3c-0.4-0.1-0.9-0.3-1.3-0.4c-0.2-0.1-0.4-0.1-0.5,0.1c-0.1,0.1-0.2,0.1-0.3,0.1c-0.4,0.2-0.8,0.4-1.1,0.8
		c-0.1,0.1-0.1,0.3,0,0.4c0.5,1.2,2.6,2.2,3.4,2.5c0.7,0.3,2,1.4,2.2,2.2c0,0.1,0,0.2-0.1,0.3c-0.7,0.7-2,0.2-3.1-0.5
		c-1-0.7-2.2-1.2-3.4-1.4c-0.1,0-0.3,0-0.4,0c-0.8,0-1.5-0.3-2.1-0.8c-0.5-0.4-0.9-0.9-1.2-1.5C57.3,50.7,56.4,49.7,55.3,49z
		 M72.5,62.4H59.8c-0.5,0-0.9-0.4-0.9-0.9h14.5C73.4,62,73,62.4,72.5,62.4z"/>
</g>
</svg>
